<?xml version="1.0"?>
<svg xmlns="http://www.w3.org/2000/svg" viewBox="0 0 50 50">
    <path style="text-indent:0;text-align:start;line-height:normal;text-transform:none;block-progression:tb;-inkscape-font-specification:Sans" d="M 25 2 C 12.309296 2 2 12.309296 2 25 C 2 37.690704 12.309296 48 25 48 C 37.690704 48 48 37.690704 48 25 C 48 12.309296 37.690704 2 25 2 z M 25 4 C 36.609824 4 46 13.390176 46 25 C 46 36.609824 36.609824 46 25 46 C 13.390176 46 4 36.609824 4 25 C 4 13.390176 13.390176 4 25 4 z M 20.875 16 A 1.0001 1.0001 0 0 0 20.28125 16.28125 L 12.4375 24.15625 L 12.34375 24.1875 A 1.001098 1.001098 0 0 0 12.28125 24.25 L 12.28125 24.28125 A 1.001098 1.001098 0 0 0 12.21875 24.34375 A 1.001098 1.001098 0 0 0 12.15625 24.40625 A 1.0001 1.0001 0 0 0 12.15625 24.4375 A 1.001098 1.001098 0 0 0 12.09375 24.5 A 1.0001 1.0001 0 0 0 12.09375 24.53125 A 1.001098 1.001098 0 0 0 11.96875 24.875 A 1.0001 1.0001 0 0 0 11.96875 24.90625 A 1.001098 1.001098 0 0 0 11.96875 25 A 1.001098 1.001098 0 0 0 11.96875 25.0625 A 1.0001 1.0001 0 0 0 11.96875 25.09375 A 1.001098 1.001098 0 0 0 12.09375 25.46875 A 1.001098 1.001098 0 0 0 12.125 25.53125 A 1.0001 1.0001 0 0 0 12.15625 25.5625 A 1.001098 1.001098 0 0 0 12.1875 25.625 A 1.0001 1.0001 0 0 0 12.21875 25.65625 A 1.001098 1.001098 0 0 0 12.25 25.6875 A 1.0001 1.0001 0 0 0 12.28125 25.71875 A 1.001098 1.001098 0 0 0 12.46875 25.875 L 20.28125 33.71875 A 1.016466 1.016466 0 1 0 21.71875 32.28125 L 15.4375 26 L 37 26 A 1.0001 1.0001 0 1 0 37 24 L 15.4375 24 L 21.71875 17.71875 A 1.0001 1.0001 0 0 0 20.875 16 z" overflow="visible" font-family="Sans"/>
</svg>
